<mxfile host="app.diagrams.net" modified="2023-04-12T18:32:21.439Z" agent="Mozilla/5.0 (Windows NT 10.0; Win64; x64) AppleWebKit/537.36 (KHTML, like Gecko) Chrome/111.0.0.0 Safari/537.36" etag="zS4mh0SLGAmR5tanLL0X" version="21.1.7" type="device">
  <diagram name="Page-1" id="2BtVdLwP-3EYQRmhVhvP">
    <mxGraphModel dx="1313" dy="726" grid="1" gridSize="10" guides="1" tooltips="1" connect="1" arrows="1" fold="1" page="1" pageScale="1" pageWidth="827" pageHeight="1169" math="0" shadow="0">
      <root>
        <mxCell id="0" />
        <mxCell id="1" parent="0" />
        <mxCell id="sBziASWLmKaQjnyZyo9N-38" value="" style="rounded=0;whiteSpace=wrap;html=1;fillColor=#fff2cc;strokeColor=#d6b656;align=right;" vertex="1" parent="1">
          <mxGeometry x="100" y="100" width="570" height="770" as="geometry" />
        </mxCell>
        <mxCell id="sBziASWLmKaQjnyZyo9N-1" value="Joueur" style="shape=umlActor;verticalLabelPosition=bottom;verticalAlign=top;html=1;outlineConnect=0;" vertex="1" parent="1">
          <mxGeometry x="40" y="370" width="30" height="60" as="geometry" />
        </mxCell>
        <mxCell id="sBziASWLmKaQjnyZyo9N-2" value="Jouer" style="ellipse;whiteSpace=wrap;html=1;" vertex="1" parent="1">
          <mxGeometry x="210" y="120" width="110" height="40" as="geometry" />
        </mxCell>
        <mxCell id="sBziASWLmKaQjnyZyo9N-3" value="Choisir un niveau" style="ellipse;whiteSpace=wrap;html=1;" vertex="1" parent="1">
          <mxGeometry x="210" y="240" width="110" height="40" as="geometry" />
        </mxCell>
        <mxCell id="sBziASWLmKaQjnyZyo9N-4" value="Paramètres" style="ellipse;whiteSpace=wrap;html=1;" vertex="1" parent="1">
          <mxGeometry x="210" y="505" width="110" height="40" as="geometry" />
        </mxCell>
        <mxCell id="sBziASWLmKaQjnyZyo9N-6" value="Quitter" style="ellipse;whiteSpace=wrap;html=1;" vertex="1" parent="1">
          <mxGeometry x="210" y="720" width="110" height="40" as="geometry" />
        </mxCell>
        <mxCell id="sBziASWLmKaQjnyZyo9N-7" value="confirmation" style="ellipse;whiteSpace=wrap;html=1;" vertex="1" parent="1">
          <mxGeometry x="520" y="810" width="110" height="40" as="geometry" />
        </mxCell>
        <mxCell id="sBziASWLmKaQjnyZyo9N-8" value="Mode de jeu" style="ellipse;whiteSpace=wrap;html=1;" vertex="1" parent="1">
          <mxGeometry x="520" y="210" width="110" height="40" as="geometry" />
        </mxCell>
        <mxCell id="sBziASWLmKaQjnyZyo9N-11" value="Port COM" style="ellipse;whiteSpace=wrap;html=1;" vertex="1" parent="1">
          <mxGeometry x="520" y="310" width="110" height="40" as="geometry" />
        </mxCell>
        <mxCell id="sBziASWLmKaQjnyZyo9N-12" value="Type d&#39;input" style="ellipse;whiteSpace=wrap;html=1;" vertex="1" parent="1">
          <mxGeometry x="520" y="410" width="110" height="40" as="geometry" />
        </mxCell>
        <mxCell id="sBziASWLmKaQjnyZyo9N-15" value="Charger" style="ellipse;whiteSpace=wrap;html=1;" vertex="1" parent="1">
          <mxGeometry x="520" y="620" width="110" height="40" as="geometry" />
        </mxCell>
        <mxCell id="sBziASWLmKaQjnyZyo9N-16" value="Appliquer" style="ellipse;whiteSpace=wrap;html=1;" vertex="1" parent="1">
          <mxGeometry x="520" y="520" width="110" height="40" as="geometry" />
        </mxCell>
        <mxCell id="sBziASWLmKaQjnyZyo9N-17" value="Sauvegarder" style="ellipse;whiteSpace=wrap;html=1;" vertex="1" parent="1">
          <mxGeometry x="520" y="720" width="110" height="40" as="geometry" />
        </mxCell>
        <mxCell id="sBziASWLmKaQjnyZyo9N-18" value="" style="endArrow=none;html=1;rounded=0;exitX=0.75;exitY=0.1;exitDx=0;exitDy=0;exitPerimeter=0;entryX=0;entryY=0.5;entryDx=0;entryDy=0;" edge="1" parent="1" source="sBziASWLmKaQjnyZyo9N-1" target="sBziASWLmKaQjnyZyo9N-2">
          <mxGeometry width="50" height="50" relative="1" as="geometry">
            <mxPoint x="110" y="220" as="sourcePoint" />
            <mxPoint x="160" y="170" as="targetPoint" />
          </mxGeometry>
        </mxCell>
        <mxCell id="sBziASWLmKaQjnyZyo9N-19" value="" style="endArrow=none;html=1;rounded=0;exitX=0.75;exitY=0.1;exitDx=0;exitDy=0;exitPerimeter=0;entryX=0;entryY=0.5;entryDx=0;entryDy=0;" edge="1" parent="1" source="sBziASWLmKaQjnyZyo9N-1" target="sBziASWLmKaQjnyZyo9N-3">
          <mxGeometry width="50" height="50" relative="1" as="geometry">
            <mxPoint x="93" y="246" as="sourcePoint" />
            <mxPoint x="220" y="150" as="targetPoint" />
          </mxGeometry>
        </mxCell>
        <mxCell id="sBziASWLmKaQjnyZyo9N-20" value="" style="endArrow=none;html=1;rounded=0;exitX=0.75;exitY=0.1;exitDx=0;exitDy=0;exitPerimeter=0;entryX=0;entryY=0.5;entryDx=0;entryDy=0;" edge="1" parent="1" source="sBziASWLmKaQjnyZyo9N-1" target="sBziASWLmKaQjnyZyo9N-4">
          <mxGeometry width="50" height="50" relative="1" as="geometry">
            <mxPoint x="93" y="246" as="sourcePoint" />
            <mxPoint x="220" y="270" as="targetPoint" />
          </mxGeometry>
        </mxCell>
        <mxCell id="sBziASWLmKaQjnyZyo9N-21" value="" style="endArrow=none;html=1;rounded=0;exitX=0.75;exitY=0.1;exitDx=0;exitDy=0;exitPerimeter=0;entryX=0;entryY=0.5;entryDx=0;entryDy=0;" edge="1" parent="1" source="sBziASWLmKaQjnyZyo9N-1" target="sBziASWLmKaQjnyZyo9N-6">
          <mxGeometry width="50" height="50" relative="1" as="geometry">
            <mxPoint x="93" y="246" as="sourcePoint" />
            <mxPoint x="220" y="535" as="targetPoint" />
          </mxGeometry>
        </mxCell>
        <mxCell id="sBziASWLmKaQjnyZyo9N-39" value="&lt;font size=&quot;1&quot; color=&quot;#ff0f0f&quot; style=&quot;&quot;&gt;&lt;u style=&quot;font-size: 20px;&quot;&gt;AtariBreakout&lt;/u&gt;&lt;/font&gt;" style="text;html=1;strokeColor=none;fillColor=none;align=center;verticalAlign=middle;whiteSpace=wrap;rounded=0;" vertex="1" parent="1">
          <mxGeometry x="530" y="100" width="140" height="34" as="geometry" />
        </mxCell>
        <mxCell id="sBziASWLmKaQjnyZyo9N-40" value="uc QT_UI" style="shape=umlFrame;whiteSpace=wrap;html=1;pointerEvents=0;" vertex="1" parent="1">
          <mxGeometry x="20" y="30" width="730" height="850" as="geometry" />
        </mxCell>
        <mxCell id="sBziASWLmKaQjnyZyo9N-41" value="&amp;lt;&amp;lt;Système&amp;gt;&amp;gt;&lt;br&gt;Jeu" style="shape=umlActor;verticalLabelPosition=bottom;verticalAlign=top;html=1;" vertex="1" parent="1">
          <mxGeometry x="700" y="170" width="30" height="60" as="geometry" />
        </mxCell>
        <mxCell id="sBziASWLmKaQjnyZyo9N-44" value="" style="endArrow=none;html=1;rounded=0;exitX=1;exitY=0.5;exitDx=0;exitDy=0;entryX=0.25;entryY=0.1;entryDx=0;entryDy=0;entryPerimeter=0;" edge="1" parent="1" source="sBziASWLmKaQjnyZyo9N-2" target="sBziASWLmKaQjnyZyo9N-41">
          <mxGeometry width="50" height="50" relative="1" as="geometry">
            <mxPoint x="390" y="190" as="sourcePoint" />
            <mxPoint x="770" y="170" as="targetPoint" />
          </mxGeometry>
        </mxCell>
        <mxCell id="sBziASWLmKaQjnyZyo9N-46" value="" style="html=1;labelBackgroundColor=#ffffff;startArrow=none;startFill=0;startSize=6;endArrow=classic;endFill=1;endSize=6;jettySize=auto;orthogonalLoop=1;strokeWidth=1;dashed=1;fontSize=14;rounded=0;entryX=1;entryY=0.5;entryDx=0;entryDy=0;exitX=0;exitY=0.5;exitDx=0;exitDy=0;" edge="1" parent="1" source="sBziASWLmKaQjnyZyo9N-8" target="sBziASWLmKaQjnyZyo9N-4">
          <mxGeometry width="60" height="60" relative="1" as="geometry">
            <mxPoint x="280" y="430" as="sourcePoint" />
            <mxPoint x="340" y="370" as="targetPoint" />
          </mxGeometry>
        </mxCell>
        <mxCell id="sBziASWLmKaQjnyZyo9N-47" value="&amp;lt;&amp;lt; extends&amp;gt;&amp;gt;" style="text;html=1;strokeColor=none;fillColor=none;align=center;verticalAlign=middle;whiteSpace=wrap;rounded=0;" vertex="1" parent="1">
          <mxGeometry x="324" y="360" width="90" height="30" as="geometry" />
        </mxCell>
        <mxCell id="sBziASWLmKaQjnyZyo9N-48" value="" style="html=1;labelBackgroundColor=#ffffff;startArrow=none;startFill=0;startSize=6;endArrow=classic;endFill=1;endSize=6;jettySize=auto;orthogonalLoop=1;strokeWidth=1;dashed=1;fontSize=14;rounded=0;entryX=1;entryY=0.5;entryDx=0;entryDy=0;exitX=0;exitY=0.5;exitDx=0;exitDy=0;" edge="1" parent="1" source="sBziASWLmKaQjnyZyo9N-11" target="sBziASWLmKaQjnyZyo9N-4">
          <mxGeometry width="60" height="60" relative="1" as="geometry">
            <mxPoint x="410" y="330" as="sourcePoint" />
            <mxPoint x="330" y="535" as="targetPoint" />
          </mxGeometry>
        </mxCell>
        <mxCell id="sBziASWLmKaQjnyZyo9N-49" value="" style="html=1;labelBackgroundColor=#ffffff;startArrow=none;startFill=0;startSize=6;endArrow=classic;endFill=1;endSize=6;jettySize=auto;orthogonalLoop=1;strokeWidth=1;dashed=1;fontSize=14;rounded=0;entryX=1;entryY=0.5;entryDx=0;entryDy=0;exitX=0;exitY=0.5;exitDx=0;exitDy=0;" edge="1" parent="1" source="sBziASWLmKaQjnyZyo9N-12" target="sBziASWLmKaQjnyZyo9N-4">
          <mxGeometry width="60" height="60" relative="1" as="geometry">
            <mxPoint x="410" y="410" as="sourcePoint" />
            <mxPoint x="330" y="535" as="targetPoint" />
          </mxGeometry>
        </mxCell>
        <mxCell id="sBziASWLmKaQjnyZyo9N-50" value="" style="html=1;labelBackgroundColor=#ffffff;startArrow=none;startFill=0;startSize=6;endArrow=classic;endFill=1;endSize=6;jettySize=auto;orthogonalLoop=1;strokeWidth=1;dashed=1;fontSize=14;rounded=0;entryX=1;entryY=0.5;entryDx=0;entryDy=0;exitX=0;exitY=0.5;exitDx=0;exitDy=0;" edge="1" parent="1" source="sBziASWLmKaQjnyZyo9N-16" target="sBziASWLmKaQjnyZyo9N-4">
          <mxGeometry width="60" height="60" relative="1" as="geometry">
            <mxPoint x="410" y="490" as="sourcePoint" />
            <mxPoint x="330" y="535" as="targetPoint" />
          </mxGeometry>
        </mxCell>
        <mxCell id="sBziASWLmKaQjnyZyo9N-51" value="" style="html=1;labelBackgroundColor=#ffffff;startArrow=none;startFill=0;startSize=6;endArrow=classic;endFill=1;endSize=6;jettySize=auto;orthogonalLoop=1;strokeWidth=1;dashed=1;fontSize=14;rounded=0;entryX=1;entryY=0.5;entryDx=0;entryDy=0;exitX=0;exitY=0.5;exitDx=0;exitDy=0;" edge="1" parent="1" source="sBziASWLmKaQjnyZyo9N-15" target="sBziASWLmKaQjnyZyo9N-4">
          <mxGeometry width="60" height="60" relative="1" as="geometry">
            <mxPoint x="410" y="575" as="sourcePoint" />
            <mxPoint x="330" y="535" as="targetPoint" />
          </mxGeometry>
        </mxCell>
        <mxCell id="sBziASWLmKaQjnyZyo9N-52" value="" style="html=1;labelBackgroundColor=#ffffff;startArrow=none;startFill=0;startSize=6;endArrow=classic;endFill=1;endSize=6;jettySize=auto;orthogonalLoop=1;strokeWidth=1;dashed=1;fontSize=14;rounded=0;entryX=1;entryY=0.5;entryDx=0;entryDy=0;exitX=0;exitY=0.5;exitDx=0;exitDy=0;" edge="1" parent="1" source="sBziASWLmKaQjnyZyo9N-17" target="sBziASWLmKaQjnyZyo9N-4">
          <mxGeometry width="60" height="60" relative="1" as="geometry">
            <mxPoint x="410" y="640" as="sourcePoint" />
            <mxPoint x="330" y="535" as="targetPoint" />
          </mxGeometry>
        </mxCell>
        <mxCell id="sBziASWLmKaQjnyZyo9N-53" value="" style="html=1;labelBackgroundColor=#ffffff;startArrow=none;startFill=0;startSize=6;endArrow=classic;endFill=1;endSize=6;jettySize=auto;orthogonalLoop=1;strokeWidth=1;dashed=1;fontSize=14;rounded=0;entryX=1;entryY=0.5;entryDx=0;entryDy=0;exitX=0;exitY=0.5;exitDx=0;exitDy=0;" edge="1" parent="1" source="sBziASWLmKaQjnyZyo9N-7" target="sBziASWLmKaQjnyZyo9N-6">
          <mxGeometry width="60" height="60" relative="1" as="geometry">
            <mxPoint x="410" y="700" as="sourcePoint" />
            <mxPoint x="330" y="535" as="targetPoint" />
          </mxGeometry>
        </mxCell>
        <mxCell id="sBziASWLmKaQjnyZyo9N-55" value="&amp;lt;&amp;lt; extends&amp;gt;&amp;gt;" style="text;html=1;strokeColor=none;fillColor=none;align=center;verticalAlign=middle;whiteSpace=wrap;rounded=0;" vertex="1" parent="1">
          <mxGeometry x="470" y="370" width="90" height="30" as="geometry" />
        </mxCell>
        <mxCell id="sBziASWLmKaQjnyZyo9N-56" value="&amp;lt;&amp;lt; extends&amp;gt;&amp;gt;" style="text;html=1;strokeColor=none;fillColor=none;align=center;verticalAlign=middle;whiteSpace=wrap;rounded=0;" vertex="1" parent="1">
          <mxGeometry x="440" y="460" width="90" height="30" as="geometry" />
        </mxCell>
        <mxCell id="sBziASWLmKaQjnyZyo9N-57" value="&amp;lt;&amp;lt; extends&amp;gt;&amp;gt;" style="text;html=1;strokeColor=none;fillColor=none;align=center;verticalAlign=middle;whiteSpace=wrap;rounded=0;" vertex="1" parent="1">
          <mxGeometry x="420" y="505" width="90" height="30" as="geometry" />
        </mxCell>
        <mxCell id="sBziASWLmKaQjnyZyo9N-58" value="&amp;lt;&amp;lt; extends&amp;gt;&amp;gt;" style="text;html=1;strokeColor=none;fillColor=none;align=center;verticalAlign=middle;whiteSpace=wrap;rounded=0;" vertex="1" parent="1">
          <mxGeometry x="430" y="570" width="90" height="30" as="geometry" />
        </mxCell>
        <mxCell id="sBziASWLmKaQjnyZyo9N-59" value="&amp;lt;&amp;lt; extends&amp;gt;&amp;gt;" style="text;html=1;strokeColor=none;fillColor=none;align=center;verticalAlign=middle;whiteSpace=wrap;rounded=0;" vertex="1" parent="1">
          <mxGeometry x="470" y="670" width="90" height="30" as="geometry" />
        </mxCell>
        <mxCell id="sBziASWLmKaQjnyZyo9N-60" value="&amp;lt;&amp;lt; extends&amp;gt;&amp;gt;" style="text;html=1;strokeColor=none;fillColor=none;align=center;verticalAlign=middle;whiteSpace=wrap;rounded=0;" vertex="1" parent="1">
          <mxGeometry x="360" y="800" width="90" height="30" as="geometry" />
        </mxCell>
      </root>
    </mxGraphModel>
  </diagram>
</mxfile>
